Coordinates
version=1
nRows=16
nColumns=40
inDegrees=yes

Units are S.I. units (second, meters, Newtons, ...)
Angles are in degrees.

endheader
time	pelvis_tilt	pelvis_list	pelvis_rotation	pelvis_tx	pelvis_ty	pelvis_tz	hip_flexion_r	hip_adduction_r	hip_rotation_r	knee_angle_r	knee_angle_r_beta	ankle_angle_r	subtalar_angle_r	mtp_angle_r	hip_flexion_l	hip_adduction_l	hip_rotation_l	knee_angle_l	knee_angle_l_beta	ankle_angle_l	subtalar_angle_l	mtp_angle_l	lumbar_extension	lumbar_bending	lumbar_rotation	arm_flex_r	arm_add_r	arm_rot_r	elbow_flex_r	pro_sup_r	wrist_flex_r	wrist_dev_r	arm_flex_l	arm_add_l	arm_rot_l	elbow_flex_l	pro_sup_l	wrist_flex_l	wrist_dev_l
      0.00000000	     -4.59058444	     -3.22825612	     -0.04092511	     -1.40803859	      0.87985240	     -0.98633820	     30.57576702	      3.95788021	    -11.63120606	    -46.12638680	     -0.80505732	      5.83223284	    -11.27113533	      0.65337606	     -3.68567525	      3.56946387	     16.10633384	    -11.71592161	     -0.20448141	     15.82828538	     -6.73621414	     -6.62919360	     -8.64371771	      6.36057986	     -6.39440226	      6.32014108	    -11.69885159	     14.13605999	     14.43444821	     89.95437384	      0.00000000	      0.00000000	     12.64969296	      9.65397391	    -21.19671046	     15.87704869	     89.95437384	      0.00000000	      0.00000000
      0.01000000	     -4.68960015	     -3.46818088	     -0.19645307	     -1.40241565	      0.87855615	     -0.98774834	     31.16969215	      4.18592907	    -11.69836218	    -44.92242151	     -0.78404416	      5.81407169	    -11.30247706	      0.86806851	     -4.32695533	      3.61896217	     16.31279121	    -11.10328489	     -0.19378888	     16.10700409	     -6.74672058	     -6.73618445	     -8.50514288	      6.60684170	     -6.46590721	      5.81252682	    -11.91132507	     14.59334285	     14.24664558	     89.95437384	      0.00000000	      0.00000000	     13.36112495	      9.77888026	    -20.79986490	     16.92303057	     89.95437384	      0.00000000	      0.00000000
      0.02000000	     -4.63190229	     -3.65585139	     -0.37206601	     -1.39662567	      0.87755613	     -0.98877362	     31.54630230	      4.39449065	    -11.68900607	    -43.60453973	     -0.76104279	      5.66361988	    -11.26476927	      1.11155862	     -4.93793215	      3.66204232	     16.31117118	    -10.89093816	     -0.19008273	     16.32600811	     -6.61379153	     -6.80786971	     -8.57515995	      6.80501580	     -6.52425041	      5.44633128	    -12.01304526	     15.15969067	     13.86905301	     89.95437384	      0.00000000	      0.00000000	     14.06204347	      9.92211306	    -20.22011465	     17.97731622	     89.95437384	      0.00000000	      0.00000000
      0.03000000	     -4.40110005	     -3.84919305	     -0.46746092	     -1.39101491	      0.87685549	     -0.98972367	     31.70901641	      4.58281993	    -11.72097840	    -42.15322419	     -0.73571255	      5.27798528	    -11.38716041	      1.45088892	     -5.62480870	      3.75040634	     16.19885701	    -10.79425575	     -0.18839530	     16.50002603	     -6.32511143	     -6.94892054	     -8.89038149	      7.00514728	     -6.60771339	      5.22181452	    -12.11078014	     16.00333901	     13.47915235	     89.95437384	      0.00000000	      0.00000000	     14.76436804	     10.12413273	    -19.48078883	     19.29583430	     89.95437384	      0.00000000	      0.00000000
      0.04000000	     -4.59171360	     -3.80036706	     -0.56456640	     -1.38504861	      0.87504786	     -0.99137115	     32.48628532	      4.27482494	    -12.00285040	    -41.14209763	     -0.71806506	      5.27337957	    -11.24448669	      1.51478376	     -5.94188080	      3.50900029	     16.33990368	    -10.65820921	     -0.18602084	     16.65556299	     -6.24456522	     -6.94553544	     -8.67450903	      6.99744858	     -6.58064631	      4.78797287	    -12.24074597	     16.18489041	     13.16544344	     89.95437384	      0.00000000	      0.00000000	     15.60304379	     10.12181703	    -19.24489141	     20.12389114	     89.95437384	      0.00000000	      0.00000000
      0.05000000	     -4.08948844	     -4.34884528	     -0.56042226	     -1.37896025	      0.87470016	     -0.99210453	     32.13208725	      4.89169420	    -11.92671448	    -39.30374487	     -0.68597976	      4.43644270	    -11.41469224	      2.32035806	     -7.18122119	      3.92179666	     15.92977839	    -10.16801802	     -0.17746539	     16.92071440	     -5.55329085	     -7.27044933	     -9.35318877	      7.59420180	     -6.79665053	      4.75858874	    -12.50877237	     18.63094279	     12.86217043	     89.95437384	      0.00000000	      0.00000000	     16.19173592	     10.16848527	    -17.51625373	     21.47211308	     89.95437384	      0.00000000	      0.00000000
      0.06000000	     -4.30717097	     -4.41029612	     -0.67126342	     -1.37304252	      0.87292591	     -0.99320019	     32.86530468	      4.81507933	    -11.90704042	    -38.11313977	     -0.66519978	      3.82688635	    -10.77808901	      2.52810961	     -7.37015379	      3.85959905	     15.88307754	    -10.22621616	     -0.17848114	     17.26892985	     -5.39851565	     -7.34926663	     -9.17322108	      7.69729098	     -6.86989209	      4.64460935	    -12.52643866	     19.14533264	     12.27025074	     89.95437384	      0.00000000	      0.00000000	     16.73789281	     10.34897317	    -17.10656431	     22.82931777	     89.95437384	      0.00000000	      0.00000000
      0.07000000	     -4.31399295	     -4.61465657	     -0.87097859	     -1.36655923	      0.87137945	     -0.99393756	     33.27146423	      4.95147490	    -11.86552376	    -36.84049192	     -0.64298788	      3.11247339	    -10.30478903	      2.82883888	     -7.90024722	      3.94426311	     15.97677630	    -10.22034139	     -0.17837861	     17.56196121	     -5.05540327	     -7.44325268	     -9.21582212	      7.94074012	     -6.81591444	      4.58467681	    -12.56775232	     19.74261014	     11.67177007	     89.95437384	      0.00000000	      0.00000000	     17.29198510	     10.42746415	    -16.53429523	     24.01533441	     89.95437384	      0.00000000	      0.00000000
      0.08000000	     -4.32956115	     -4.65249880	     -0.89184338	     -1.35996865	      0.86982038	     -0.99514857	     33.69793977	      4.77263489	    -11.91092331	    -35.66095868	     -0.62240114	      2.28870372	     -9.60395670	      2.99953872	     -8.00410941	      3.93725511	     16.28734317	    -10.90770626	     -0.19037539	     17.85449921	     -4.89207158	     -7.56049201	     -9.24737966	      8.05021542	     -6.94963293	      4.55794322	    -12.59142736	     20.22568930	     11.06045734	     89.95437384	      0.00000000	      0.00000000	     17.86673339	     10.47363282	    -16.00103179	     25.10885244	     89.95437384	      0.00000000	      0.00000000
      0.09000000	     -4.42416023	     -4.99418077	     -0.85772969	     -1.35372875	      0.86809374	     -0.99586800	     34.18530800	      4.93506560	    -12.12050042	    -34.42610931	     -0.60084896	      1.33836171	     -9.30156808	      3.35641981	     -8.78850770	      4.15665432	     15.74282089	    -10.09392072	     -0.17617215	     18.15107974	     -4.86767550	     -7.70095064	     -9.23589666	      8.46861276	     -6.98708828	      4.54616652	    -12.63390570	     20.79899291	     10.54066519	     89.95437384	      0.00000000	      0.00000000	     18.38659698	     10.58076822	    -15.56180095	     26.46724594	     89.95437384	      0.00000000	      0.00000000
      0.10000000	     -4.61970974	     -5.09732328	     -1.03214382	     -1.34671657	      0.86615420	     -0.99666280	     34.77090444	      4.91487273	    -12.04406614	    -33.36439940	     -0.58231862	      0.48639346	     -8.52503878	      3.46897622	     -9.06053843	      4.16341567	     15.48188105	    -10.22983453	     -0.17854429	     18.43695863	     -4.73021085	     -7.75664103	     -9.07427222	      8.64822554	     -6.95601943	      4.49592572	    -12.67230960	     21.08500523	     10.07330237	     89.95437384	      0.00000000	      0.00000000	     18.78201693	     10.64729984	    -15.19903189	     27.69440929	     89.95437384	      0.00000000	      0.00000000
      0.11000000	     -4.77934088	     -5.08419157	     -1.06894518	     -1.33971067	      0.86413941	     -0.99763493	     35.47548788	      4.65811737	    -12.19972703	    -32.77591256	     -0.57204759	      0.28681753	     -8.23069348	      3.47382236	     -9.37153364	      4.07978372	     15.45743795	    -10.34994278	     -0.18064058	     18.50019926	     -4.65570625	     -7.71282575	     -8.93407268	      8.70081445	     -6.79811772	      4.26798323	    -12.78189047	     21.11783862	      9.86504944	     89.95437384	      0.00000000	      0.00000000	     19.43254868	     10.55172721	    -15.06529094	     28.57569133	     89.95437384	      0.00000000	      0.00000000
      0.12000000	     -4.93311950	     -5.52878254	     -1.21929113	     -1.33215443	      0.86246206	     -0.99790703	     35.77233722	      5.04705691	    -12.15889983	    -31.50674921	     -0.54989651	     -0.99623361	     -7.12784278	      3.58295062	     -9.86790516	      4.49047582	     15.23537005	    -10.26329174	     -0.17912823	     18.98576840	     -4.59827562	     -7.78464971	     -8.78463209	      9.26238465	     -6.85497345	      4.41217639	    -12.78229097	     21.29437189	      9.28709037	     89.95437384	      0.00000000	      0.00000000	     19.49859406	     10.76903912	    -14.84382112	     30.15536812	     89.95437384	      0.00000000	      0.00000000
      0.13000000	     -4.80553360	     -5.63785328	     -1.20118424	     -1.32481726	      0.86145109	     -0.99791185	     35.85853136	      5.01451083	    -12.30812027	    -30.64841791	     -0.53491580	     -1.46065544	     -6.58823295	      3.61731523	    -10.46642453	      4.62511414	     14.66932799	    -10.45285563	     -0.18243675	     18.97950893	     -4.32728949	     -7.80579618	     -9.00911754	      9.37515213	     -6.82417871	      4.43576976	    -12.69162252	     21.31146512	      8.99649796	     89.95437384	      0.00000000	      0.00000000	     19.80259620	     10.99915125	    -14.78130679	     31.59701011	     89.95437384	      0.00000000	      0.00000000
      0.14000000	     -4.71242725	     -6.04749999	     -0.87579942	     -1.31681166	      0.86017283	     -0.99925067	     35.90436684	      4.97919951	    -12.84113135	    -30.00527049	     -0.52369076	     -1.50970359	     -5.97696432	      3.54162844	    -10.92266912	      5.08598641	     13.71732188	    -10.91228282	     -0.19045526	     19.21097691	     -3.84338841	     -7.82831721	     -9.09475069	      9.98796853	     -7.03716474	      4.36572711	    -12.86903141	     21.14796621	      8.94915021	     89.95437384	      0.00000000	      0.00000000	     20.11729967	     10.95314937	    -14.71753758	     32.74973166	     89.95437384	      0.00000000	      0.00000000
      0.15000000	     -4.93633429	     -6.21506073	     -0.49617920	     -1.30925940	      0.85861419	     -0.99987785	     36.40087551	      4.77622798	    -13.08806035	    -29.71204129	     -0.51857295	     -1.57455546	     -5.74932757	      3.44250184	    -10.95497865	      5.39087173	     12.91247674	    -11.26509130	     -0.19661293	     19.24860229	     -3.57476825	     -8.01862427	     -8.84036879	     10.25725330	     -7.34073778	      4.35185560	    -12.82220712	     20.74293598	      8.78811677	     89.95437384	      0.00000000	      0.00000000	     20.39157129	     11.07890486	    -14.83335259	     33.92480952	     89.95437384	      0.00000000	      0.00000000
